<svg width="30" height="29" viewBox="0 0 30 29" fill="none" xmlns="http://www.w3.org/2000/svg">
<g filter="url(#filter0_f_14_99)">
<path d="M28 5.04432C27.0433 5.54396 26.0153 5.88164 24.9363 6.03356C26.0377 5.25604 26.8834 4.02482 27.2816 2.55784C26.2346 3.28964 25.089 3.80524 23.8944 4.08236C22.9214 2.86143 21.5351 2.09839 20.0008 2.09839C17.0549 2.09839 14.6665 4.91131 14.6665 8.38069C14.6665 8.87315 14.7137 9.35258 14.8046 9.8125C10.3714 9.55042 6.44092 7.04935 3.80995 3.24839C3.35088 4.17626 3.08784 5.25557 3.08784 6.40676C3.08784 8.58643 4.02962 10.5093 5.46084 11.6359C4.61376 11.6047 3.78532 11.3352 3.04467 10.8501C3.04437 10.8764 3.04437 10.9027 3.04437 10.9291C3.04437 13.973 4.88305 16.5123 7.32319 17.0894C6.5377 17.341 5.71376 17.3778 4.91434 17.1971C5.59308 19.693 7.56309 21.5093 9.8972 21.5601C8.07161 23.245 5.77152 24.2495 3.27248 24.2495C2.84185 24.2495 2.41732 24.2197 2 24.1617C4.36062 25.9442 7.16445 26.9843 10.1768 26.9843C19.9884 26.9843 25.3537 17.4112 25.3537 9.10927C25.3537 8.83679 25.3486 8.56585 25.3383 8.29648C26.3825 7.40734 27.2839 6.30606 28 5.04432Z" fill="#55ACEE"/>
</g>
<defs>
<filter id="filter0_f_14_99" x="0.297872" y="0.297872" width="29.4043" height="28.4043" filterUnits="userSpaceOnUse" color-interpolation-filters="sRGB">
<feFlood flood-opacity="0" result="BackgroundImageFix"/>
<feBlend mode="normal" in="SourceGraphic" in2="BackgroundImageFix" result="shape"/>
<feGaussianBlur stdDeviation="0.851064" result="effect1_foregroundBlur_14_99"/>
</filter>
</defs>
</svg>
