<svg width="37" height="29" viewBox="0 0 37 29" fill="none" xmlns="http://www.w3.org/2000/svg">
<g filter="url(#filter0_f_14_100)">
<path d="M30.1175 23.3015H25.228V17.5005C25.228 16.1171 25.1954 14.3364 22.6849 14.3364C20.1383 14.3364 19.7486 15.8436 19.7486 17.3998V23.3011H14.8592V11.3718H19.553V13.0021H19.6188C20.0885 12.3936 20.7673 11.893 21.5829 11.5537C22.3985 11.2143 23.3203 11.0489 24.2501 11.0751C29.2059 11.0751 30.1196 13.5446 30.1196 16.7573L30.1175 23.3015ZM9.34198 9.74127C7.77487 9.74147 6.50424 8.77916 6.50398 7.59196C6.50373 6.40475 7.77384 5.44215 9.34095 5.44196C10.9081 5.44166 12.1787 6.40397 12.179 7.59117C12.1791 8.1613 11.8803 8.70811 11.3482 9.11133C10.8162 9.51455 10.0945 9.74114 9.34198 9.74127ZM11.7868 23.3016H6.89212V11.3718H11.7867V23.3015L11.7868 23.3016ZM32.5552 2.00182H4.43517C3.10614 1.99049 2.01624 2.79703 2 3.80387V25.1958C2.01573 26.2031 3.1055 27.0104 4.43504 26.9999H32.5552C33.8875 27.0124 34.9816 26.205 35 25.1958V3.80221C34.9811 2.79342 33.8869 1.98698 32.5552 2.00016" fill="#0A66C2"/>
</g>
<defs>
<filter id="filter0_f_14_100" x="0.508475" y="0.508475" width="35.9831" height="27.9831" filterUnits="userSpaceOnUse" color-interpolation-filters="sRGB">
<feFlood flood-opacity="0" result="BackgroundImageFix"/>
<feBlend mode="normal" in="SourceGraphic" in2="BackgroundImageFix" result="shape"/>
<feGaussianBlur stdDeviation="0.745763" result="effect1_foregroundBlur_14_100"/>
</filter>
</defs>
</svg>
