
<svg width="33" height="33" viewBox="0 0 33 33" fill="none" xmlns="http://www.w3.org/2000/svg">
<g filter="url(#filter0_f_14_98)">
<path d="M16.5 2C12.5651 2 12.0703 2.01813 10.5242 2.087C8.97813 2.1595 7.92506 2.40237 7.0025 2.76125C6.0348 3.12523 5.15827 3.69619 4.43419 4.43419C3.69664 5.15864 3.12576 6.03506 2.76125 7.0025C2.40237 7.92325 2.15769 8.97812 2.087 10.5187C2.01813 12.0684 2 12.5614 2 16.5018C2 20.4386 2.01813 20.9316 2.087 22.4776C2.1595 24.0219 2.40237 25.0749 2.76125 25.9975C3.13281 26.9509 3.62763 27.7592 4.43419 28.5658C5.23894 29.3724 6.04731 29.869 7.00069 30.2387C7.92506 30.5976 8.97631 30.8423 10.5206 30.913C12.0684 30.9819 12.5614 31 16.5 31C20.4386 31 20.9298 30.9819 22.4776 30.913C24.0201 30.8405 25.0768 30.5976 25.9993 30.2387C26.9664 29.8746 27.8423 29.3036 28.5658 28.5658C29.3724 27.7592 29.8672 26.9509 30.2387 25.9975C30.5958 25.0749 30.8405 24.0219 30.913 22.4776C30.9819 20.9316 31 20.4386 31 16.5C31 12.5614 30.9819 12.0684 30.913 10.5206C30.8405 8.97813 30.5958 7.92325 30.2387 7.0025C29.8743 6.03503 29.3034 5.1586 28.5658 4.43419C27.842 3.69591 26.9654 3.12492 25.9975 2.76125C25.0731 2.40237 24.0182 2.15769 22.4758 2.087C20.9279 2.01813 20.4368 2 16.4964 2H16.5018H16.5ZM15.2004 4.61363H16.5018C20.3733 4.61363 20.8319 4.62631 22.3598 4.697C23.7736 4.76044 24.5421 4.99788 25.0532 5.19544C25.7292 5.45825 26.2132 5.77362 26.7207 6.28112C27.2282 6.78862 27.5418 7.27075 27.8046 7.94863C28.0039 8.45794 28.2396 9.22644 28.303 10.6402C28.3737 12.1681 28.3882 12.6267 28.3882 16.4964C28.3882 20.3661 28.3737 20.8264 28.303 22.3544C28.2396 23.7681 28.0021 24.5348 27.8046 25.0459C27.5721 25.6755 27.201 26.2448 26.7189 26.7116C26.2114 27.2191 25.7293 27.5327 25.0514 27.7955C24.5439 27.9949 23.7754 28.2305 22.3598 28.2958C20.8319 28.3646 20.3733 28.3809 16.5018 28.3809C12.6303 28.3809 12.1699 28.3646 10.642 28.2958C9.22825 28.2305 8.46156 27.9949 7.95044 27.7955C7.32059 27.5634 6.75079 27.193 6.28294 26.7116C5.80036 26.2441 5.42875 25.6743 5.19544 25.0441C4.99788 24.5348 4.76044 23.7663 4.697 22.3526C4.62813 20.8246 4.61363 20.3661 4.61363 16.4927C4.61363 12.6212 4.62813 12.1645 4.697 10.6366C4.76225 9.22281 4.99788 8.45431 5.19725 7.94319C5.46006 7.26713 5.77544 6.78319 6.28294 6.27569C6.79044 5.76819 7.27256 5.45463 7.95044 5.19181C8.46156 4.99244 9.22825 4.75681 10.642 4.69156C11.9796 4.62994 12.498 4.61181 15.2004 4.61V4.61363V4.61363ZM24.2412 7.02062C24.0127 7.02062 23.7864 7.06563 23.5753 7.15307C23.3642 7.24052 23.1724 7.36869 23.0108 7.53026C22.8492 7.69183 22.7211 7.88365 22.6336 8.09476C22.5462 8.30586 22.5012 8.53212 22.5012 8.76063C22.5012 8.98913 22.5462 9.21539 22.6336 9.42649C22.7211 9.6376 22.8492 9.82942 23.0108 9.99099C23.1724 10.1526 23.3642 10.2807 23.5753 10.3682C23.7864 10.4556 24.0127 10.5006 24.2412 10.5006C24.7027 10.5006 25.1452 10.3173 25.4716 9.99099C25.7979 9.66468 25.9812 9.2221 25.9812 8.76063C25.9812 8.29915 25.7979 7.85657 25.4716 7.53026C25.1452 7.20395 24.7027 7.02062 24.2412 7.02062V7.02062ZM16.5018 9.05425C15.5141 9.03884 14.5332 9.22007 13.6163 9.58738C12.6993 9.95469 11.8646 10.5008 11.1606 11.1938C10.4567 11.8868 9.89772 12.7129 9.51615 13.624C9.13458 14.5352 8.93807 15.5131 8.93807 16.5009C8.93807 17.4887 9.13458 18.4666 9.51615 19.3778C9.89772 20.2889 10.4567 21.115 11.1606 21.808C11.8646 22.5011 12.6993 23.0471 13.6163 23.4144C14.5332 23.7817 15.5141 23.963 16.5018 23.9476C18.4567 23.9171 20.3211 23.1191 21.6928 21.7259C23.0644 20.3327 23.8332 18.456 23.8332 16.5009C23.8332 14.5458 23.0644 12.6691 21.6928 11.2759C20.3211 9.88272 18.4567 9.08475 16.5018 9.05425V9.05425ZM16.5018 11.6661C17.7839 11.6661 19.0134 12.1754 19.9199 13.0819C20.8265 13.9884 21.3358 15.218 21.3358 16.5C21.3358 17.782 20.8265 19.0116 19.9199 19.9181C19.0134 20.8246 17.7839 21.3339 16.5018 21.3339C15.2198 21.3339 13.9902 20.8246 13.0837 19.9181C12.1772 19.0116 11.6679 17.782 11.6679 16.5C11.6679 15.218 12.1772 13.9884 13.0837 13.0819C13.9902 12.1754 15.2198 11.6661 16.5018 11.6661V11.6661Z" fill="white"/>
</g>
<defs>
<filter id="filter0_f_14_98" x="0" y="0" width="33" height="33" filterUnits="userSpaceOnUse" color-interpolation-filters="sRGB">
<feFlood flood-opacity="0" result="BackgroundImageFix"/>
<feBlend mode="normal" in="SourceGraphic" in2="BackgroundImageFix" result="shape"/>
<feGaussianBlur stdDeviation="1" result="effect1_foregroundBlur_14_98"/>
</filter>
</defs>
</svg>
