<svg width="19" height="20" viewBox="0 0 19 20" fill="none" xmlns="http://www.w3.org/2000/svg">
<path d="M5.82373 0H7.82495V0.8952H6.66055V1.7904H7.82495V2.6856H5.82373V0Z" fill="white"/>
<path d="M8.2251 0H10.2271V0.77894H9.06269V0.93423H10.2271V2.72463H8.2251V1.90749H9.3895V1.75137H8.2251V0Z" fill="white"/>
<path d="M10.6274 0H12.6279V0.77894H11.4635V0.93423H12.6279V2.72463H10.6274V1.90749H11.7918V1.75137H10.6274V0Z" fill="white"/>
<path fill-rule="evenodd" clip-rule="evenodd" d="M9.30853 19.9302L3.91812 18.3292L2.3291 3.91711H16.3019L14.7137 18.3275L9.30853 19.9302ZM5.47066 10.4409L5.61893 12.2081H11.3455L11.1537 14.5001L9.31086 15.0332H9.3093L7.46955 14.5017L7.35156 13.0925H5.69267L5.924 15.8678L9.30853 16.8726L12.6985 15.8678L13.1115 10.9151L13.1518 10.4409L13.4499 6.86264H5.17335L5.32394 8.63061H11.6397L11.4891 10.4409H5.47066V10.4409Z" fill="white"/>
</svg>
