<svg width="18" height="18" viewBox="0 0 18 18" fill="none" xmlns="http://www.w3.org/2000/svg">
<path d="M12 12C13.6569 12 15 10.6569 15 9C15 7.34315 13.6569 6 12 6C10.3431 6 9 7.34315 9 9C9 10.6569 10.3431 12 12 12Z" fill="#19BCFE"/>
<path fill-rule="evenodd" clip-rule="evenodd" d="M6 18C6.79565 18 7.55871 17.6839 8.12132 17.1213C8.68393 16.5587 9 15.7956 9 15V12H6C5.20435 12 4.44129 12.3161 3.87868 12.8787C3.31607 13.4413 3 14.2044 3 15C3 15.7956 3.31607 16.5587 3.87868 17.1213C4.44129 17.6839 5.20435 18 6 18Z" fill="#09CF83"/>
<path fill-rule="evenodd" clip-rule="evenodd" d="M6 12H9V6H6C5.20435 6 4.44129 6.31607 3.87868 6.87868C3.31607 7.44129 3 8.20435 3 9C3 9.79565 3.31607 10.5587 3.87868 11.1213C4.44129 11.6839 5.20435 12 6 12Z" fill="#A259FF"/>
<path fill-rule="evenodd" clip-rule="evenodd" d="M6 6H9V0H6C5.20435 0 4.44129 0.316071 3.87868 0.87868C3.31607 1.44129 3 2.20435 3 3C3 3.79565 3.31607 4.55871 3.87868 5.12132C4.44129 5.68393 5.20435 6 6 6Z" fill="#F24E1E"/>
<path fill-rule="evenodd" clip-rule="evenodd" d="M12 6H9V0H12C12.7956 0 13.5587 0.316071 14.1213 0.87868C14.6839 1.44129 15 2.20435 15 3C15 3.79565 14.6839 4.55871 14.1213 5.12132C13.5587 5.68393 12.7956 6 12 6Z" fill="#FF7262"/>
</svg>
