<svg width="15" height="18" viewBox="0 0 15 18" fill="none" xmlns="http://www.w3.org/2000/svg">
<g clip-path="url(#clip0_14_61)">
<path d="M0 0H14.9655V17.36H0V0Z" fill="#F7DF1E"/>
<path d="M3.93463 14.5072L5.07984 13.7032C5.30082 14.1576 5.5018 14.5421 5.98391 14.5421C6.44603 14.5421 6.73745 14.3324 6.73745 13.5168V7.96985H8.1438V13.5398C8.1438 15.2295 7.28994 15.9986 6.04418 15.9986C4.91914 15.9986 4.26609 15.3228 3.93457 14.507" fill="black"/>
<path d="M8.90777 14.3325L10.0529 13.5635C10.3543 14.1345 10.7461 14.554 11.4392 14.554C12.022 14.554 12.3936 14.216 12.3936 13.7499C12.3936 13.1906 12.0118 12.9924 11.3689 12.6662L11.0174 12.4913C10.0027 11.9904 9.32967 11.3611 9.32967 10.0326C9.32967 8.809 10.1333 7.87671 11.3891 7.87671C12.2831 7.87671 12.9261 8.23801 13.3881 9.1819L12.2931 9.99768C12.0519 9.49661 11.7909 9.29853 11.389 9.29853C10.9771 9.29853 10.7159 9.60152 10.7159 9.99768C10.7159 10.4871 10.9771 10.6853 11.5798 10.9883L11.9314 11.163C13.1269 11.7574 13.7999 12.3633 13.7999 13.7266C13.7999 15.195 12.8054 15.999 11.4693 15.999C10.1634 15.999 9.31956 15.2765 8.90771 14.3326" fill="black"/>
</g>
<defs>
<clipPath id="clip0_14_61">
<rect width="14.9655" height="17.36" fill="white"/>
</clipPath>
</defs>
</svg>
