<svg width="22" height="18" viewBox="0 0 22 18" fill="none" xmlns="http://www.w3.org/2000/svg">
<g clip-path="url(#clip0_14_72)">
<path d="M18.305 10.3607C17.5649 10.365 16.9217 10.5661 16.3831 10.8634C16.1854 10.4218 15.9878 10.0285 15.953 9.7399C15.9142 9.40334 15.8678 9.19784 15.9142 8.79565C15.9608 8.39347 16.17 7.82075 16.1661 7.77706C16.1623 7.73337 16.1196 7.52787 15.6933 7.52356C15.2671 7.51915 14.899 7.61534 14.8564 7.74209C14.8138 7.86884 14.7324 8.1574 14.6782 8.45459C14.6045 8.89184 13.8258 10.4524 13.3802 11.2699C13.2368 10.9509 13.1128 10.671 13.0856 10.4481C13.0469 10.1115 13.0004 9.90603 13.0469 9.50384C13.0934 9.10165 13.3027 8.52903 13.2988 8.48525C13.2948 8.44156 13.2522 8.23606 12.826 8.23175C12.3997 8.22734 12.0316 8.32353 11.9891 8.45028C11.9464 8.57712 11.8999 8.87431 11.8108 9.16287C11.7217 9.45144 10.6871 12.0569 10.4159 12.7301C10.3063 13.0025 10.1913 13.2722 10.071 13.5388C10.071 13.5388 10.0671 13.552 10.0555 13.5738C10.0177 13.6574 9.97898 13.7405 9.93933 13.823V13.8273C9.88116 13.9454 9.81917 14.0547 9.78817 14.0547C9.7649 14.0547 9.72228 13.7399 9.7959 13.3115C9.95088 12.4066 10.319 10.999 10.3152 10.9509C10.3152 10.9246 10.3849 10.6798 10.0749 10.553C9.77263 10.4262 9.66419 10.6361 9.63702 10.6361C9.60993 10.6361 9.59048 10.7104 9.59048 10.7104C9.59048 10.7104 9.92769 9.1279 8.94732 9.1279C8.33514 9.1279 7.49038 9.88418 7.07191 10.5661C6.59619 10.8582 6.12088 11.1511 5.64597 11.4448C5.41746 11.5891 5.18105 11.7334 4.96018 11.8689C4.94464 11.8514 4.92918 11.8295 4.91364 11.8121C3.72794 10.3826 1.53485 9.37268 1.62784 7.45362C1.66274 6.75415 1.8758 4.91806 5.83975 2.68859C9.10229 0.874343 11.6985 1.37703 12.148 2.49181C12.7911 4.08312 10.7569 7.03831 7.38577 7.46665C6.09935 7.62847 5.4251 7.06887 5.25467 6.85906C5.07643 6.64044 5.04926 6.62731 4.98336 6.67109C4.87492 6.73672 4.94464 6.9334 4.98336 7.04703C5.08416 7.34422 5.49873 7.86884 6.20006 8.12684C6.82004 8.35409 8.32733 8.48094 10.1524 7.68528C12.1944 6.79344 13.7909 4.31478 13.322 2.23831C12.8531 0.131187 9.75327 -0.563875 6.82004 0.612031C5.07643 1.31159 3.18548 2.41316 1.82544 3.84706C0.209627 5.5519 -0.0461446 7.0339 0.0584741 7.65472C0.434403 9.85793 3.1274 11.2918 4.20458 12.3541C4.15032 12.3891 4.09988 12.4197 4.05733 12.446C3.5187 12.7476 1.46505 13.9585 0.953591 15.2394C0.372413 16.6907 1.04666 17.7312 1.49222 17.871C2.87553 18.3039 4.29756 17.5257 5.06089 16.2404C5.82421 14.9552 5.73123 13.2852 5.37865 12.5202C5.37475 12.5115 5.37092 12.5027 5.36311 12.494C5.50263 12.4022 5.64597 12.306 5.78549 12.2142C6.04192 12.0432 6.3016 11.8785 6.56436 11.7202C6.43256 12.1268 6.33567 12.612 6.28922 13.3115C6.23106 14.1334 6.52937 15.2 6.92076 15.6196C7.09518 15.8034 7.30051 15.8077 7.4323 15.8077C7.8895 15.8077 8.09491 15.3792 8.32351 14.8722C8.60247 14.2514 8.85433 13.5301 8.85433 13.5301C8.85433 13.5301 8.54048 15.4798 9.39296 15.4798C9.70292 15.4798 10.0168 15.0252 10.1563 14.7935V14.7978C10.1563 14.7978 10.164 14.7847 10.1796 14.7541C10.2106 14.6973 10.2299 14.6622 10.2299 14.6622V14.6536C10.3539 14.4087 10.6329 13.8536 11.0475 12.9312C11.5822 11.7421 12.0976 10.2558 12.0976 10.2558C12.0976 10.2558 12.1441 10.6186 12.3029 11.2219C12.396 11.576 12.5896 11.9651 12.7447 12.341C12.6207 12.5378 12.5432 12.647 12.5432 12.647L12.5471 12.6514C12.4463 12.8 12.3378 12.9617 12.2177 13.1192C11.7953 13.6874 11.2916 14.3389 11.2218 14.5268C11.1404 14.7497 11.1598 14.9115 11.3149 15.0427C11.4273 15.1389 11.6287 15.1519 11.8341 15.1389C12.2138 15.1082 12.4812 15.0033 12.6129 14.9378C12.8183 14.8547 13.0585 14.7279 13.2832 14.5399C13.6979 14.1945 13.9496 13.7006 13.9265 13.0493C13.9148 12.6908 13.8102 12.3323 13.6823 11.9956C13.7211 11.9345 13.756 11.8733 13.7948 11.8121C14.4496 10.7322 14.9572 9.54753 14.9572 9.54753C14.9572 9.54753 15.0037 9.91034 15.1625 10.5137C15.2401 10.8197 15.3989 11.152 15.5384 11.4754C14.9223 12.0394 14.5425 12.6951 14.4069 13.1235C14.1629 13.9192 14.3527 14.2776 14.7131 14.3607C14.8758 14.4 15.1083 14.3126 15.2788 14.2295C15.4957 14.1508 15.7515 14.0154 15.9957 13.8142C16.4103 13.4689 16.8093 12.988 16.7861 12.3367C16.7744 12.0394 16.7047 11.7464 16.6078 11.4623C17.1309 11.2176 17.8052 11.082 18.6653 11.1957C20.5098 11.4404 20.874 12.7388 20.8042 13.2853C20.7345 13.8317 20.347 14.129 20.2192 14.2208C20.0912 14.3127 20.0487 14.3432 20.0603 14.4087C20.0758 14.5049 20.1378 14.5006 20.2463 14.4831C20.3974 14.4525 21.215 14.0415 21.2499 13.0361C21.308 11.7508 20.223 10.3476 18.305 10.3607ZM4.07669 15.7727C3.46444 16.5246 2.61203 16.8087 2.24391 16.5684C1.84871 16.3104 2.00368 15.2 2.75537 14.4044C3.21257 13.9192 3.80156 13.4688 4.19295 13.1935C4.28202 13.1322 4.41382 13.0449 4.5727 12.9356C4.59979 12.918 4.61533 12.9093 4.61533 12.9093L4.70831 12.8437C4.98336 13.9803 4.71994 14.9815 4.07669 15.7727ZM8.53275 12.3541C8.31961 12.94 7.87404 14.4394 7.60281 14.3563C7.37031 14.2864 7.22689 13.1498 7.55628 12.0263C7.72289 11.4623 8.07547 10.7891 8.28088 10.5268C8.6141 10.1071 8.98222 9.96715 9.0713 10.1378C9.18373 10.3607 8.66446 11.9869 8.53275 12.3541ZM12.2099 14.3388C12.1208 14.3913 12.0356 14.4263 11.9968 14.4C11.9697 14.3825 12.0356 14.3126 12.0356 14.3126C12.0356 14.3126 12.4967 13.7531 12.6788 13.4995C12.7835 13.3509 12.9074 13.176 13.0392 12.9792V13.0361C13.0392 13.705 12.4656 14.1552 12.2099 14.3388H12.2099ZM15.0463 13.6088C14.9804 13.5563 14.992 13.3814 15.2129 12.835C15.2981 12.6207 15.4996 12.2623 15.8445 11.917C15.8832 12.0568 15.9104 12.1924 15.9065 12.3192C15.9026 13.1629 15.3679 13.4776 15.0463 13.6088Z" fill="#CD6799"/>
</g>
<defs>
<clipPath id="clip0_14_72">
<rect width="21.2727" height="18" fill="white"/>
</clipPath>
</defs>
</svg>
