<svg width="17" height="20" viewBox="0 0 17 20" fill="none" xmlns="http://www.w3.org/2000/svg">
<g clip-path="url(#clip0_14_53)">
<path d="M3.59814 0H4.36456V0.849551H5.06581V0H5.83223V2.5717H5.06581V1.71102H4.36456V2.5717H3.59885V0H3.59814Z" fill="white"/>
<path d="M6.83937 0.85273H6.16504V0H8.28083V0.85273H7.60579V2.5717H6.83937V0.85273Z" fill="white"/>
<path d="M8.6167 0H9.4157L9.90728 0.903591L10.3982 0H11.1972V2.5717H10.4343V1.29698L9.90728 2.21169H9.89382L9.36612 1.29777V2.5717H8.6167V0V0Z" fill="white"/>
<path d="M11.5786 0H12.3457V1.72215H13.4224V2.57249H11.5786V0V0Z" fill="white"/>
<path fill-rule="evenodd" clip-rule="evenodd" d="M3.57425 17.5409L2.125 3.74866H14.875L13.425 17.5394L8.49292 19.0732L3.57425 17.5409ZM6.50462 9.99115L6.36721 8.25867H12.1366L12.2712 6.56751H4.72033L5.12692 11.6831H10.3523L10.1773 13.8765L8.49575 14.3867H8.49433L6.81558 13.8781L6.70792 12.5295H5.1935L5.40458 15.1854L8.49292 16.147L11.5862 15.1854L11.963 10.4457L11.9999 9.99194H6.50462V9.99115Z" fill="white"/>
</g>
<defs>
<clipPath id="clip0_14_53">
<rect width="17" height="19.0732" fill="white"/>
</clipPath>
</defs>
</svg>
